<?xml version="1.0" standalone="no"?>
<!DOCTYPE svg PUBLIC "-//W3C//DTD SVG 1.1//EN" "http://www.w3.org/Graphics/SVG/1.1/DTD/svg11.dtd">
<svg width="100%" height="100%" viewBox="0 0 700 320" version="1.1" xmlns="http://www.w3.org/2000/svg" xmlns:xlink="http://www.w3.org/1999/xlink" xml:space="preserve" style="fill-rule:evenodd;clip-rule:evenodd;stroke-linejoin:round;stroke-miterlimit:1.41421;">
    <g transform="matrix(1,0,0,1,0.1056,1.63817)">
        <g id="C-logo" transform="matrix(1.68544,0,0,1.68544,-382.159,-206.331)">
            <path d="M604.143,138.344C600.503,138.344 596.864,138.549 593.225,138.963C578.801,140.755 560.871,147.579 539.438,159.434C516.791,171.978 497.918,186.108 482.82,201.822C465.431,219.88 456.736,236.422 456.736,251.447C456.736,264.129 463.205,274.85 476.146,282.707C487.74,290.013 501.759,293.353 518.205,293.629C528.315,293.905 538.696,292.871 549.346,290.527C559.995,288.046 571.481,284.143 582.805,279.318C596.969,272.22 606.684,267.511 624.451,252.691C625.395,251.726 625.867,250.969 625.867,250.418C625.867,249.729 625.598,249.383 625.059,249.383C624.385,249.383 623.643,249.865 622.834,250.83C611,261.784 597.14,268.474 581.65,275.063C570.731,279.474 560.196,282.669 549.547,285.15C539.032,287.494 528.653,288.804 518.408,289.08C500.614,289.494 489.68,288.659 478.686,278.838C471.776,272.665 469.79,264.609 470.016,251.928C470.077,248.482 470.486,245.105 471.43,241.797C477.631,220.982 488.818,201.684 516.992,179.904C543.683,159.641 568.419,147.304 591.201,142.893C593.088,142.617 594.841,142.409 596.459,142.271C598.211,142.134 599.83,142.064 601.312,142.064C612.232,142.064 618.904,144.822 621.33,150.336C615.534,156.677 609.738,164.673 603.941,174.322C596.258,186.729 592.201,196.361 592.201,204.08C594.089,205.763 595.911,206.415 598.551,206.172C606.235,201.761 613.377,195.894 618.904,189.002C623.757,183.488 627.06,178.388 628.812,173.701C630.565,168.877 631.441,163.776 631.441,158.4C631.441,152.886 630.497,148.959 628.609,146.615C630.362,144.41 631.059,143.145 631.154,142.742C631.295,142.14 631.199,141.479 630.537,141.295C629.714,141.065 629.304,141.357 628.812,141.859L626.184,144.547C621.735,140.411 614.388,138.344 604.143,138.344L604.143,138.344ZM622.543,153.645C623.891,155.988 624.566,159.089 624.566,162.949C624.566,165.155 624.297,167.292 623.758,169.359C623.353,171.427 622.746,173.564 621.938,175.77C617.354,186.659 610.007,195.482 599.896,202.236C599.222,202.65 598.615,202.65 598.076,202.236C597.672,201.961 597.537,201.34 597.672,200.375C599.424,193.207 602.661,185.005 607.379,175.77C609.805,170.945 612.298,166.74 614.859,163.156C617.421,159.572 619.982,156.401 622.543,153.645L622.543,153.645ZM609.406,182.68C608.336,182.679 607.467,183.546 607.467,184.617C607.467,185.688 608.336,186.555 609.406,186.555C610.476,186.554 611.343,185.687 611.344,184.617C611.343,183.547 610.476,182.68 609.406,182.68ZM464.303,241.486C466.361,241.486 468.03,243.155 468.029,245.213C468.029,247.27 466.36,248.938 464.303,248.938C462.246,248.937 460.579,247.27 460.578,245.213C460.578,243.155 462.245,241.487 464.303,241.486ZM463.545,251.473C465.52,251.473 467.121,253.074 467.121,255.049C467.121,257.024 465.52,258.625 463.545,258.625C461.571,258.624 459.971,257.023 459.971,255.049C459.971,253.074 461.571,251.474 463.545,251.473Z" style="fill:black;fill-rule:nonzero;"/>
        </g>
        <g id="A-logo" transform="matrix(1.72651,0,0,1.72651,-212.732,-207.115)">
            <path d="M334.686,132.135C332.555,132.1 330.577,132.161 329.17,132.182C328.107,132.214 327.254,132.571 326.609,133.256C322.937,139.354 316.352,148.275 310.73,155.897C305.109,163.518 298.649,172.03 291.352,181.432C278.034,198.467 268.24,212.904 260.777,221.246C221.726,216.376 211.367,216.51 188.48,216.48C183.959,216.474 179.846,216.943 176.137,217.455C172.556,217.83 169.25,218.463 166.217,219.354C151.576,223.524 142.045,233.325 136.404,249.063C134.673,253.372 133.444,257.381 132.768,261.393C131.621,270.386 130.245,279.705 135.678,286.443C141.36,292.828 146.837,293.8 155.207,293.412C172.079,292.632 192.208,284.672 217.318,266.08C226.291,259.288 234.47,252.587 241.852,245.977C249.362,239.229 256.387,232.362 262.561,225.389C271.531,227.244 279.047,228.654 287.074,230.139C295.102,231.624 302.727,232.989 309.949,234.232C309.463,240.101 309.095,245.5 308.846,250.43C308.73,255.356 308.734,259.88 308.859,264C309.195,275.032 310.494,282.71 312.754,287.031C312.903,287.559 313.443,287.808 314.373,287.779C316.766,287.707 318.117,286.769 318.322,284.768C318.318,284.635 318.059,284.342 317.652,284.088C317.246,283.834 316.772,283.582 316.232,283.332C311.927,281.434 312.375,274.177 312.262,270.881C312.124,266.362 312.365,261.166 312.984,255.293C313.604,249.42 314.53,242.673 315.762,235.053C321.912,236.063 329.34,237.355 332.945,237.777C336.679,238.063 339.019,238.101 341.664,237.059C345.425,235.533 346.23,234.604 346.105,231.676C345.311,227.644 341.677,224.583 335.848,221.281C333.477,220.112 333.843,222.948 335.299,223.881C339.802,227.602 342.997,229.103 343.094,232.293C343.158,234.42 339.513,234.984 335.26,235.113C331.006,235.243 322.908,233.838 316.068,232.051C321.968,200.032 328.933,184.642 346.744,138.631C348.849,133.194 341.078,132.238 334.686,132.135L334.686,132.135ZM338.926,137.029C338.926,137.029 338.926,137.029 338.926,137.029C340.872,137.029 342.473,138.63 342.473,140.576L342.473,140.577C342.473,142.522 340.872,144.123 338.926,144.123L338.925,144.123C336.98,144.123 335.379,142.522 335.379,140.577L335.379,140.576C335.379,138.63 336.98,137.029 338.925,137.029C338.925,137.029 338.926,137.029 338.926,137.029ZM326.146,144.451C327.343,144.415 327.972,145.459 328.037,147.586C328.049,147.985 327.944,148.854 327.719,150.191C316.748,187.51 311.756,214.886 310.65,231.018C303.163,229.782 295.602,228.351 287.969,226.721C280.469,225.086 269.753,223.098 265.525,222.113C275.565,211.031 284.134,197.815 293.871,185.545C303.609,173.275 313.325,160.275 323.018,146.543C323.662,145.858 324.18,145.376 324.57,145.098C324.957,144.687 325.482,144.471 326.146,144.451L326.146,144.451ZM335.418,147.793C335.418,147.793 335.418,147.793 335.418,147.793C337.108,147.793 338.498,149.183 338.498,150.873L338.498,150.873C338.498,152.563 337.108,153.953 335.418,153.953L335.418,153.953C333.728,153.953 332.338,152.563 332.338,150.873L332.338,150.873C332.338,149.183 333.728,147.793 335.418,147.793C335.418,147.793 335.418,147.793 335.418,147.793ZM195.973,220.244C212.815,220.154 233.409,221.663 257.969,224.73C244.184,239.518 230.078,252.521 215.652,263.736C192.37,281.208 172.376,289.325 155.242,290.246C151.392,290.496 148.05,290 145.219,288.756C134.659,284.17 134.737,277.325 134.889,271.594C135.534,263.848 136.898,257.031 139.221,250.309C141.793,243.046 145.21,237.287 149.471,233.033C153.86,228.642 160.557,223.883 169.662,222.143C177.113,220.928 185.868,220.298 195.973,220.244L195.973,220.244ZM335.027,228.398C333.974,228.398 333.106,229.265 333.105,230.318C333.105,230.319 333.105,230.319 333.105,230.319C333.105,231.373 333.973,232.24 335.026,232.24C335.027,232.24 335.027,232.24 335.027,232.24C336.081,232.24 336.948,231.372 336.947,230.318C336.947,229.265 336.08,228.399 335.027,228.398Z" style="fill:black;fill-rule:nonzero;"/>
        </g>
    </g>
</svg>
